<svg width="100" height="60" viewBox="0 0 100 110" fill="none" xmlns="http://www.w3.org/2000/svg">
<polygon fill="#009A96" points="34.4,56.8 34.4,42.2 26.5,42.2 26.5,56.8 26.5,64.7 34.4,64.7 49,64.7 49,56.8     "/><polygon fill="#009A96" points="56.9,26.4 42.3,26.4 42.3,34.3 56.9,34.3 56.9,48.9 64.7,48.9 64.7,34.3 64.7,26.4     "/><path fill="#009A96" d="M91.3,45.7C91.3,20.5,70.9,0,45.7,0C20.5,0,0,20.5,0,45.7c0,12.6,5.1,24,13.3,32.2C14,78.6,15,79,16,79 c2,0,3.7-1.7,3.7-3.7c0-1-0.4-2-1.1-2.7c-6.9-6.9-11.1-16.4-11.1-27c0-21.1,17.2-38.2,38.3-38.2c21.1,0,38.2,17.2,38.2,38.2 c0,10.6-4.3,20.1-11.2,27L40.4,105l5.3,5.3L78,77.9C86.2,69.7,91.3,58.3,91.3,45.7"/></svg>